<?xml version="1.0" encoding="UTF-8"?>
<!DOCTYPE svg PUBLIC "-//W3C//DTD SVG 1.1//EN" "http://www.w3.org/Graphics/SVG/1.1/DTD/svg11.dtd">
<!-- Creator: CorelDRAW X7 -->
<svg xmlns="http://www.w3.org/2000/svg" xml:space="preserve" width="16.9332mm" height="16.9332mm" version="1.1" style="shape-rendering:geometricPrecision; text-rendering:geometricPrecision; image-rendering:optimizeQuality; fill-rule:evenodd; clip-rule:evenodd"
viewBox="0 0 1693 1693"
 xmlns:xlink="http://www.w3.org/1999/xlink">
 <defs>
  <style type="text/css">
   <![CDATA[
    .fil0 {fill:#FEFEFE}
   ]]>
  </style>
 </defs>
 <g id="Layer_x0020_1">
  <metadata id="CorelCorpID_0Corel-Layer"/>
  <path class="fil0" d="M847 718c-107,0 -193,86 -193,193 0,107 86,193 193,193 106,0 193,-86 193,-193 0,-107 -87,-193 -193,-193zm514 -193l-154 0c-21,0 -44,-17 -51,-37l-40 -119c-6,-21 -29,-37 -51,-37l-437 0c-21,0 -44,16 -51,37l-40 119c-7,20 -29,37 -51,37l-154 0c-71,0 -129,58 -129,129l0 579c0,70 58,128 129,128l1029 0c71,0 129,-58 129,-128l0 -579c0,-71 -58,-129 -129,-129zm-514 708c-178,0 -322,-144 -322,-322 0,-178 144,-322 322,-322 177,0 321,144 321,322 0,178 -144,322 -321,322zm469 -489c-24,0 -45,-21 -45,-45 0,-25 21,-45 45,-45 25,0 45,20 45,45 0,24 -20,45 -45,45z"/>
 </g>
</svg>
