<?xml version="1.0" encoding="UTF-8"?>
<!DOCTYPE svg PUBLIC "-//W3C//DTD SVG 1.1//EN" "http://www.w3.org/Graphics/SVG/1.1/DTD/svg11.dtd">
<!-- Creator: CorelDRAW X7 -->
<svg xmlns="http://www.w3.org/2000/svg" xml:space="preserve" width="16.9332mm" height="16.9332mm" version="1.1" style="shape-rendering:geometricPrecision; text-rendering:geometricPrecision; image-rendering:optimizeQuality; fill-rule:evenodd; clip-rule:evenodd"
viewBox="0 0 1693 1693"
 xmlns:xlink="http://www.w3.org/1999/xlink">
 <defs>
  <style type="text/css">
   <![CDATA[
    .fil0 {fill:#FEFEFE}
   ]]>
  </style>
 </defs>
 <g id="Layer_x0020_1">
  <metadata id="CorelCorpID_0Corel-Layer"/>
  <path class="fil0" d="M1385 1160l-56 0c-50,0 -91,34 -91,77 0,43 41,78 91,78l56 0c50,0 90,-35 91,-78 -1,-43 -41,-77 -91,-77zm0 -782l-56 0c-51,0 -91,36 -91,79l0 676c25,-18 56,-29 91,-29l56 0c35,0 66,11 91,29l0 -676c0,-43 -41,-79 -91,-79zm-852 703l649 0 0 -491 -649 0 0 491zm649 -644l-796 0 -141 0c-15,0 -28,12 -28,28 0,15 13,28 28,28l113 0 0 92 -113 0c-15,0 -28,13 -28,28 0,16 13,28 28,28l113 0 0 93 -113 0c-15,0 -28,12 -28,28 0,15 13,27 28,27l113 0 0 93 -113 0c-15,0 -28,13 -28,28 0,15 13,28 28,28l113 0 0 93 -113 0c-15,0 -28,12 -28,27 0,16 13,28 28,28l113 0 0 92 -113 0c-15,0 -28,13 -28,28 0,15 13,28 28,28l141 0c0,0 0,0 0,0l796 0 0 -97 -677 0c-8,0 -15,-3 -20,-8 -5,-6 -8,-13 -8,-20l0 -547c0,-16 12,-28 28,-28l677 0 0 -97 0 0z"/>
 </g>
</svg>
