<?xml version="1.0" encoding="UTF-8"?>
<!DOCTYPE svg PUBLIC "-//W3C//DTD SVG 1.1//EN" "http://www.w3.org/Graphics/SVG/1.1/DTD/svg11.dtd">
<!-- Creator: CorelDRAW X7 -->
<svg xmlns="http://www.w3.org/2000/svg" xml:space="preserve" width="16.9332mm" height="16.9332mm" version="1.1" style="shape-rendering:geometricPrecision; text-rendering:geometricPrecision; image-rendering:optimizeQuality; fill-rule:evenodd; clip-rule:evenodd"
viewBox="0 0 1693 1693"
 xmlns:xlink="http://www.w3.org/1999/xlink">
 <defs>
  <style type="text/css">
   <![CDATA[
    .fil0 {fill:#FEFEFE}
   ]]>
  </style>
 </defs>
 <g id="Layer_x0020_1">
  <metadata id="CorelCorpID_0Corel-Layer"/>
  <path class="fil0" d="M1008 525l-751 0c-30,0 -54,24 -54,54l0 482c0,30 24,54 54,54l161 0 0 107 107 0 0 268 107 0 0 -268 107 0 0 -107 269 0c29,0 53,-24 53,-54l0 -482c0,-30 -24,-54 -53,-54zm-644 375l0 -161c0,-29 24,-53 54,-53l214 0c30,0 54,24 54,53l0 161c0,30 -24,54 -54,54l-214 0c-30,0 -54,-24 -54,-54zm483 54c-30,0 -54,-24 -54,-54 0,-29 24,-53 54,-53 29,0 53,24 53,53 0,30 -24,54 -53,54zm0 -161c-30,0 -54,-24 -54,-54 0,-29 24,-53 54,-53 29,0 53,24 53,53 0,30 -24,54 -53,54zm-215 -429c0,-89 -72,-161 -161,-161 -89,0 -161,72 -161,161 0,89 72,161 161,161 89,0 161,-72 161,-161zm-161 54c-29,0 -53,-24 -53,-54 0,-29 24,-54 53,-54 30,0 54,25 54,54 0,30 -24,54 -54,54zm322 107c89,0 161,-72 161,-161 0,-89 -72,-161 -161,-161 -89,0 -161,72 -161,161 0,89 73,161 161,161zm0 -215c30,0 54,25 54,54 0,30 -24,54 -54,54 -29,0 -54,-24 -54,-54 0,-29 25,-54 54,-54zm674 171c-14,-10 -33,-12 -49,-6l-303 114 0 463 303 113c34,12 71,-13 72,-50l0 -590c0,-17 -9,-34 -23,-44l0 0z"/>
 </g>
</svg>
