<?xml version="1.0" encoding="UTF-8"?>
<!DOCTYPE svg PUBLIC "-//W3C//DTD SVG 1.1//EN" "http://www.w3.org/Graphics/SVG/1.1/DTD/svg11.dtd">
<!-- Creator: CorelDRAW X7 -->
<svg xmlns="http://www.w3.org/2000/svg" xml:space="preserve" width="16.9332mm" height="16.9332mm" version="1.1" style="shape-rendering:geometricPrecision; text-rendering:geometricPrecision; image-rendering:optimizeQuality; fill-rule:evenodd; clip-rule:evenodd"
viewBox="0 0 1693 1693"
 xmlns:xlink="http://www.w3.org/1999/xlink">
 <defs>
  <style type="text/css">
   <![CDATA[
    .fil0 {fill:#FEFEFE}
   ]]>
  </style>
 </defs>
 <g id="Layer_x0020_1">
  <metadata id="CorelCorpID_0Corel-Layer"/>
  <path class="fil0" d="M360 677c-5,-10 -9,-20 -13,-30l-97 0 -26 678 161 0 -25 -648zm1082 -30l-96 0c-4,11 -9,22 -14,33l-25 645 161 0 -26 -678zm-1189 -100c-17,11 -28,30 -28,52l27 0 105 0 25 0c23,570 3,726 465,697 549,3 374,-207 464,-697l24 0 105 0 28 0c0,-22 -11,-41 -28,-52 27,-17 45,-47 45,-82 0,-53 -43,-97 -97,-97 -53,0 -97,44 -97,97 0,35 18,65 45,82 -8,5 -282,178 -489,178 -208,0 -482,-173 -490,-178 27,-17 45,-47 45,-82 0,-53 -43,-97 -97,-97 -53,0 -97,44 -97,97 0,35 18,65 45,82z"/>
 </g>
</svg>
