<?xml version="1.0" encoding="UTF-8"?>
<!DOCTYPE svg PUBLIC "-//W3C//DTD SVG 1.1//EN" "http://www.w3.org/Graphics/SVG/1.1/DTD/svg11.dtd">
<!-- Creator: CorelDRAW X7 -->
<svg xmlns="http://www.w3.org/2000/svg" xml:space="preserve" width="16.9332mm" height="16.9332mm" version="1.1" style="shape-rendering:geometricPrecision; text-rendering:geometricPrecision; image-rendering:optimizeQuality; fill-rule:evenodd; clip-rule:evenodd"
viewBox="0 0 1693 1693"
 xmlns:xlink="http://www.w3.org/1999/xlink">
 <defs>
  <style type="text/css">
   <![CDATA[
    .fil0 {fill:#FEFEFE}
   ]]>
  </style>
 </defs>
 <g id="Layer_x0020_1">
  <metadata id="CorelCorpID_0Corel-Layer"/>
  <path class="fil0" d="M1310 782c0,-71 -58,-129 -129,-129 -71,0 -128,58 -128,129 0,71 57,129 128,129 71,0 129,-58 129,-129zm35 -197c-45,-37 -101,-60 -164,-60 -62,0 -118,22 -162,59l-661 0c-85,0 -155,69 -155,154l0 206c0,85 70,155 155,155l0 44c0,14 11,26 25,26l85 0c15,0 26,-12 26,-26l0 -44 705 0 0 44c0,14 12,26 26,26l85 0c14,0 26,-12 26,-26l0 -44c85,0 154,-70 154,-155l0 -206c0,-81 -64,-148 -145,-153zm-961 359c0,14 -20,26 -44,26 -24,0 -43,-12 -43,-26l0 -206c0,-14 19,-25 43,-25 24,0 44,11 44,25l0 206zm137 0c0,14 -20,26 -44,26 -24,0 -43,-12 -43,-26l0 -206c0,-14 19,-25 43,-25 24,0 44,11 44,25l0 206zm137 0c0,14 -20,26 -43,26 -24,0 -44,-12 -44,-26l0 -206c0,-14 20,-25 44,-25 23,0 43,11 43,25l0 206zm523 18c-99,0 -180,-81 -180,-180 0,-100 81,-180 180,-180 100,0 180,80 180,180 0,99 -80,180 -180,180z"/>
 </g>
</svg>
