<?xml version="1.0" encoding="UTF-8"?>
<!DOCTYPE svg PUBLIC "-//W3C//DTD SVG 1.1//EN" "http://www.w3.org/Graphics/SVG/1.1/DTD/svg11.dtd">
<!-- Creator: CorelDRAW X7 -->
<svg xmlns="http://www.w3.org/2000/svg" xml:space="preserve" width="16.9332mm" height="16.9332mm" version="1.1" style="shape-rendering:geometricPrecision; text-rendering:geometricPrecision; image-rendering:optimizeQuality; fill-rule:evenodd; clip-rule:evenodd"
viewBox="0 0 1693 1693"
 xmlns:xlink="http://www.w3.org/1999/xlink">
 <defs>
  <style type="text/css">
   <![CDATA[
    .fil0 {fill:#FEFEFE}
   ]]>
  </style>
 </defs>
 <g id="Layer_x0020_1">
  <metadata id="CorelCorpID_0Corel-Layer"/>
  <path class="fil0" d="M707 419c34,0 61,27 61,61 0,33 -27,60 -61,60 -34,0 -61,-27 -61,-60 0,-34 27,-61 61,-61zm-479 684c0,12 9,21 20,21l336 0 53 -42 175 0 0 -688c0,-12 -9,-21 -21,-21l-397 0c-21,-21 -49,-33 -79,-33 -62,0 -112,50 -112,111 0,26 10,50 25,69l0 583zm86 -572c-44,0 -80,-36 -80,-80 0,-38 25,-69 60,-78 7,-2 13,-3 20,-3 7,0 14,1 20,3 35,9 61,40 61,78 0,44 -37,80 -81,80zm393 -133c45,0 82,36 82,81 0,46 -37,82 -82,82 -45,0 -82,-36 -82,-82 0,-45 37,-81 82,-81zm66 403c0,138 -113,250 -251,250 -138,0 -250,-112 -250,-250 0,-139 112,-251 250,-251 138,0 251,112 251,251zm373 386l-585 0c-11,0 -22,9 -23,20l-16 126c-1,11 7,21 19,21l626 0c11,0 19,-10 18,-21l-16 -126c-1,-11 -12,-20 -23,-20zm-501 125l-63 0 0 -21 63 0 0 21zm218 27c-36,0 -66,-30 -66,-66 0,-37 30,-67 66,-67 22,0 40,10 53,26l-22 8c-11,4 -17,16 -13,26 3,9 11,14 20,14 2,0 5,0 7,-1l22 -8c0,1 0,1 0,2 0,37 -30,66 -67,66zm123 -799c34,0 61,-27 61,-60 0,-34 -27,-61 -61,-61 -33,0 -60,27 -60,61 0,33 27,60 60,60zm393 -200c-31,0 -59,12 -79,33l-405 0c-11,0 -21,9 -21,21l0 688 197 0 54 42 313 0c11,0 21,-9 21,-21l0 -575c19,-20 31,-47 31,-77 0,-61 -50,-111 -111,-111zm80 121c-5,39 -39,70 -80,70 -44,0 -80,-36 -80,-80 0,-38 26,-69 60,-78 7,-2 13,-3 20,-3 7,0 14,1 20,3 32,8 56,34 60,67 0,4 1,7 1,11 0,3 -1,6 -1,10zm-473 -63c45,0 82,36 82,81 0,46 -37,82 -82,82 -45,0 -81,-36 -81,-82 0,-45 36,-81 81,-81zm183 653c-138,0 -250,-112 -250,-250 0,-139 112,-251 250,-251 138,0 251,112 251,251 0,138 -113,250 -251,250zm-105 52l-190 0 -62 0 -168 0 -26 21 -54 42 580 0 -53 -42 -27 -21zm-709 -652c0,-20 -17,-37 -37,-37 -21,0 -37,17 -37,37 0,21 16,37 37,37 20,0 37,-16 37,-37zm1027 -37c21,0 37,17 37,37 0,21 -16,37 -37,37 -20,0 -37,-16 -37,-37 0,-20 17,-37 37,-37zm-860 593c114,0 206,-92 206,-206 0,-114 -92,-207 -206,-207 -114,0 -206,93 -206,207 0,114 92,206 206,206zm0 -307c56,0 101,45 101,101 0,55 -45,100 -101,100 -55,0 -100,-45 -100,-100 0,-56 45,-101 100,-101zm647 -106c-114,0 -206,93 -206,207 0,114 92,206 206,206 114,0 206,-92 206,-206 0,-114 -92,-207 -206,-207zm0 307c-55,0 -100,-45 -100,-100 0,-56 45,-101 100,-101 56,0 100,45 100,101 0,55 -44,100 -100,100z"/>
 </g>
</svg>
